<svg width="210" height="210" xmlns="http://www.w3.org/2000/svg" xmlns:xlink="http://www.w3.org/1999/xlink" xml:space="preserve" overflow="hidden"><defs><linearGradient x1="395.428" y1="48.8644" x2="525.807" y2="124.141" gradientUnits="userSpaceOnUse" spreadMethod="pad" id="fill0"><stop offset="0" stop-color="#F0364C" stop-opacity="0.5"/><stop offset="0.12" stop-color="#F0364C" stop-opacity="0.5"/><stop offset="0.261" stop-color="#F0364C" stop-opacity="0.454"/><stop offset="0.507" stop-color="#F0364C" stop-opacity="0.333"/><stop offset="0.65" stop-color="#F0364C" stop-opacity="0.25"/><stop offset="1" stop-color="#F0364C" stop-opacity="0"/></linearGradient><linearGradient x1="376.541" y1="172.406" x2="531.486" y2="116.012" gradientUnits="userSpaceOnUse" spreadMethod="pad" id="fill1"><stop offset="0" stop-color="#920B18"/><stop offset="0.166" stop-color="#920B18"/><stop offset="0.55" stop-color="#F0364C"/><stop offset="0.8" stop-color="#FF5C39"/><stop offset="1" stop-color="#FF5C39"/></linearGradient><linearGradient x1="399.304" y1="163.717" x2="464.037" y2="193.9" gradientUnits="userSpaceOnUse" spreadMethod="pad" id="fill2"><stop offset="0" stop-color="#6E0811" stop-opacity="0.75"/><stop offset="0.114" stop-color="#6E0811" stop-opacity="0.75"/><stop offset="0.699" stop-color="#6E0811" stop-opacity="0"/><stop offset="1" stop-color="#6E0811" stop-opacity="0"/></linearGradient><linearGradient x1="355.812" y1="177.603" x2="438.307" y2="129.977" gradientUnits="userSpaceOnUse" spreadMethod="pad" id="fill3"><stop offset="0" stop-color="#920B18"/><stop offset="0.026" stop-color="#A41322"/><stop offset="0.074" stop-color="#BF1F31"/><stop offset="0.126" stop-color="#D5293D"/><stop offset="0.183" stop-color="#E43045"/><stop offset="0.25" stop-color="#ED344A"/><stop offset="0.35" stop-color="#F0364C"/><stop offset="0.75" stop-color="#FF5C39"/><stop offset="1" stop-color="#FF5C39"/></linearGradient><linearGradient x1="432.095" y1="45.3031" x2="488.196" y2="92.3781" gradientUnits="userSpaceOnUse" spreadMethod="pad" id="fill4"><stop offset="0" stop-color="#6E0811" stop-opacity="0"/><stop offset="0.5" stop-color="#6E0811" stop-opacity="0"/><stop offset="0.581" stop-color="#6E0811" stop-opacity="0.093"/><stop offset="0.72" stop-color="#6E0811" stop-opacity="0.342"/><stop offset="0.899" stop-color="#6E0811" stop-opacity="0.744"/><stop offset="1" stop-color="#6E0811"/></linearGradient></defs><g transform="translate(-337 -21)"><path d="M383.856 91.7612 441.851 91.7612C457.825 91.7586 471.683 102.79 475.263 118.357L529.15 118.357C525.269 73.6138 487.679 38.5 441.856 38.5L421.962 38.5C419.862 38.5 417.964 39.3444 416.586 40.7138L378.457 78.7806C375.493 81.7617 375.506 86.5817 378.487 89.5462 379.914 90.965 381.844 91.7617 383.856 91.7612Z" fill="#73262F"/><path d="M383.856 91.7612 441.851 91.7612C457.825 91.7586 471.683 102.79 475.263 118.357L529.15 118.357C525.269 73.6138 487.679 38.5 441.856 38.5L421.962 38.5C419.862 38.5 417.964 39.3444 416.586 40.7138L378.457 78.7806C375.493 81.7617 375.506 86.5817 378.487 89.5462 379.914 90.965 381.844 91.7617 383.856 91.7612Z" fill="url(#fill0)"/><path d="M497.007 58.0387C503.481 63.3782 504.4 72.9549 499.06 79.4286 498.748 79.8074 498.418 80.1706 498.07 80.5175L470.84 107.699C474.317 113.169 476.16 119.518 476.151 126 476.151 144.909 460.795 160.239 441.856 160.239 434.318 160.241 426.991 157.749 421.018 153.151L383.375 191.157C399.44 205.569 420.269 213.528 441.851 213.5 490.261 213.5 529.5 174.326 529.5 126 529.5 98.5512 516.817 74.0819 497.007 58.0387Z" fill="url(#fill1)"/><path d="M461.744 153.781C450.412 161.884 435.31 162.347 423.503 154.954L398.561 179.852C392.614 185.773 392.592 195.393 398.513 201.34 399.676 202.509 401.022 203.48 402.498 204.216 420.836 213.359 441.788 215.817 461.744 211.168L461.744 153.781Z" fill="url(#fill2)"/><path d="M402.498 204.225C394.097 200.017 386.429 194.483 379.788 187.836 365.425 173.546 356.494 154.696 354.531 134.531 354.253 130.169 355.87 125.899 358.967 122.815 361.832 119.949 365.721 118.345 369.773 118.357L441.812 118.357C446.011 118.371 449.404 121.787 449.39 125.986 449.383 127.999 448.579 129.926 447.154 131.346L398.561 179.856C392.612 185.775 392.588 195.396 398.507 201.344 399.672 202.515 401.02 203.488 402.498 204.225Z" fill="url(#fill3)"/><path d="M498.07 58.9969 498.039 58.9706C482.823 46.235 463.267 38.5 441.851 38.5L437.804 38.5 437.804 91.7612 441.851 91.7612C453.606 91.7534 464.543 97.7773 470.818 107.717L470.84 107.699 498.07 80.5175C504.013 74.5929 504.027 64.9723 498.102 59.0294 498.092 59.0186 498.081 59.0077 498.07 58.9969Z" fill="url(#fill4)"/></g></svg>