<svg width="576" height="199" viewBox="0 0 576 199" fill="none" xmlns="http://www.w3.org/2000/svg">
<rect width="576" height="199" fill="#E3F7EF"/>
<path d="M251.207 105H250.223V96.5977H251.207V105ZM257.781 105H253.422V96.5977H254.406V104.109H257.781V105ZM263.43 105H259.07V96.5977H260.055V104.109H263.43V105ZM270.631 101.602C270.631 103.961 269.566 105.141 267.438 105.141C265.398 105.141 264.379 104.006 264.379 101.736V96.5977H265.363V101.672C265.363 103.395 266.09 104.256 267.543 104.256C268.945 104.256 269.646 103.424 269.646 101.76V96.5977H270.631V101.602ZM272.342 104.66V103.5C272.475 103.617 272.633 103.723 272.816 103.816C273.004 103.91 273.199 103.99 273.402 104.057C273.609 104.119 273.816 104.168 274.023 104.203C274.23 104.238 274.422 104.256 274.598 104.256C275.203 104.256 275.654 104.145 275.951 103.922C276.252 103.695 276.402 103.371 276.402 102.949C276.402 102.723 276.352 102.525 276.25 102.357C276.152 102.189 276.016 102.037 275.84 101.9C275.664 101.76 275.455 101.627 275.213 101.502C274.975 101.373 274.717 101.238 274.439 101.098C274.146 100.949 273.873 100.799 273.619 100.646C273.365 100.494 273.145 100.326 272.957 100.143C272.77 99.959 272.621 99.752 272.512 99.5215C272.406 99.2871 272.354 99.0137 272.354 98.7012C272.354 98.3184 272.438 97.9863 272.605 97.7051C272.773 97.4199 272.994 97.1855 273.268 97.002C273.541 96.8184 273.852 96.6816 274.199 96.5918C274.551 96.502 274.908 96.457 275.271 96.457C276.1 96.457 276.703 96.5566 277.082 96.7559V97.8633C276.586 97.5195 275.949 97.3477 275.172 97.3477C274.957 97.3477 274.742 97.3711 274.527 97.418C274.312 97.4609 274.121 97.5332 273.953 97.6348C273.785 97.7363 273.648 97.8672 273.543 98.0273C273.438 98.1875 273.385 98.3828 273.385 98.6133C273.385 98.8281 273.424 99.0137 273.502 99.1699C273.584 99.3262 273.703 99.4688 273.859 99.5977C274.016 99.7266 274.205 99.8516 274.428 99.9727C274.654 100.094 274.914 100.227 275.207 100.371C275.508 100.52 275.793 100.676 276.062 100.84C276.332 101.004 276.568 101.186 276.771 101.385C276.975 101.584 277.135 101.805 277.252 102.047C277.373 102.289 277.434 102.566 277.434 102.879C277.434 103.293 277.352 103.645 277.188 103.934C277.027 104.219 276.809 104.451 276.531 104.631C276.258 104.811 275.941 104.939 275.582 105.018C275.223 105.1 274.844 105.141 274.445 105.141C274.312 105.141 274.148 105.129 273.953 105.105C273.758 105.086 273.559 105.055 273.355 105.012C273.152 104.973 272.959 104.924 272.775 104.865C272.596 104.803 272.451 104.734 272.342 104.66ZM284.078 97.4883H281.652V105H280.668V97.4883H278.248V96.5977H284.078V97.4883ZM291.426 105H290.254L288.848 102.645C288.719 102.426 288.594 102.24 288.473 102.088C288.352 101.932 288.227 101.805 288.098 101.707C287.973 101.609 287.836 101.539 287.688 101.496C287.543 101.449 287.379 101.426 287.195 101.426H286.387V105H285.402V96.5977H287.91C288.277 96.5977 288.615 96.6445 288.924 96.7383C289.236 96.8281 289.506 96.9668 289.732 97.1543C289.963 97.3418 290.143 97.5762 290.271 97.8574C290.4 98.1348 290.465 98.4609 290.465 98.8359C290.465 99.1289 290.42 99.3984 290.33 99.6445C290.244 99.8867 290.119 100.104 289.955 100.295C289.795 100.486 289.6 100.65 289.369 100.787C289.143 100.92 288.887 101.023 288.602 101.098V101.121C288.742 101.184 288.863 101.256 288.965 101.338C289.07 101.416 289.17 101.51 289.264 101.619C289.357 101.729 289.449 101.854 289.539 101.994C289.633 102.131 289.736 102.291 289.85 102.475L291.426 105ZM286.387 97.4883V100.535H287.723C287.969 100.535 288.195 100.498 288.402 100.424C288.613 100.35 288.795 100.244 288.947 100.107C289.1 99.9668 289.219 99.7969 289.305 99.5977C289.391 99.3945 289.434 99.168 289.434 98.918C289.434 98.4688 289.287 98.1191 288.994 97.8691C288.705 97.6152 288.285 97.4883 287.734 97.4883H286.387ZM299.09 105H298L297.109 102.645H293.547L292.709 105H291.613L294.836 96.5977H295.855L299.09 105ZM296.787 101.76L295.469 98.1797C295.426 98.0625 295.383 97.875 295.34 97.6172H295.316C295.277 97.8555 295.232 98.043 295.182 98.1797L293.875 101.76H296.787ZM304.434 97.4883H302.008V105H301.023V97.4883H298.604V96.5977H304.434V97.4883ZM306.742 105H305.758V96.5977H306.742V105ZM312.344 105.141C311.152 105.141 310.197 104.748 309.479 103.963C308.764 103.178 308.406 102.156 308.406 100.898C308.406 99.5469 308.771 98.4688 309.502 97.6641C310.232 96.8594 311.227 96.457 312.484 96.457C313.645 96.457 314.578 96.8477 315.285 97.6289C315.996 98.4102 316.352 99.4316 316.352 100.693C316.352 102.064 315.988 103.148 315.262 103.945C314.535 104.742 313.562 105.141 312.344 105.141ZM312.414 97.3477C311.531 97.3477 310.814 97.666 310.264 98.3027C309.713 98.9395 309.438 99.7754 309.438 100.811C309.438 101.846 309.705 102.68 310.24 103.312C310.779 103.941 311.48 104.256 312.344 104.256C313.266 104.256 313.992 103.955 314.523 103.354C315.055 102.752 315.32 101.91 315.32 100.828C315.32 99.7188 315.062 98.8613 314.547 98.2559C314.031 97.6504 313.32 97.3477 312.414 97.3477ZM324.777 105H323.57L319.246 98.3027C319.137 98.1348 319.047 97.959 318.977 97.7754H318.941C318.973 97.9551 318.988 98.3398 318.988 98.9297V105H318.004V96.5977H319.281L323.488 103.189C323.664 103.463 323.777 103.65 323.828 103.752H323.852C323.812 103.51 323.793 103.098 323.793 102.516V96.5977H324.777V105Z" fill="#117865"/>
</svg>
